<svg fill="none" xmlns="http://www.w3.org/2000/svg" viewBox="0 0 501 154"><path d="M234.162 107.477 199.642 16H181l47.869 122h10.409l4.058-10.295-9.174-20.228ZM268.682 16l-25.435 67.476 9.792 19.322L287 16h-18.318ZM302 16v122h17V16h-17ZM331 16v16.307h23.578V138h17.904V32.307H396V16h-65ZM455.411 16h-15.792L394 138h18.498l13.322-35.927h27.955l-4.758-16.333h-17.011l15.405-46.674h.327l15.286 46.674 5.947 16.333L482.265 138H501L455.411 16Z" fill="#fff"/><path fill-rule="evenodd" clip-rule="evenodd" d="M101 154c42.526 0 77-34.474 77-77 0-23.946-10.931-45.338-28.074-59.461l.175 62.058a50.443 50.443 0 0 1-8.281 27.692c-5.394 8.197-13.057 14.586-22.023 18.36a48.383 48.383 0 0 1-28.35 2.847c-9.52-1.918-18.266-6.659-25.135-13.625-6.868-6.965-11.551-15.841-13.457-25.509a50.622 50.622 0 0 1 2.75-28.807c3.698-9.115 9.973-16.913 18.03-22.407a48.558 48.558 0 0 1 27.243-8.465 47.532 47.532 0 0 1 15.466 2.531l.881.309v17.996l-1.884-.957a32.18 32.18 0 0 0-14.463-3.426 32.54 32.54 0 0 0-18.29 5.619 33.321 33.321 0 0 0-12.133 14.997 33.925 33.925 0 0 0-1.885 19.317 33.598 33.598 0 0 0 8.999 17.125 32.744 32.744 0 0 0 16.848 9.158 32.435 32.435 0 0 0 19.017-1.897 33.03 33.03 0 0 0 14.773-12.313 33.812 33.812 0 0 0 5.548-18.576V7.294C123.815 2.615 112.713 0 101 0 58.474 0 24 34.474 24 77s34.474 77 77 77Z" fill="#fff"/></svg>