<svg width="16" height="16" viewBox="0 0 154 154" fill="none" xmlns="http://www.w3.org/2000/svg"><circle cx="77" cy="77" r="77" fill="#742D80"/><path fill-rule="evenodd" clip-rule="evenodd" d="m125.926 17.45.175 62.147c0 9.84-2.879 19.467-8.281 27.692-5.394 8.197-13.057 14.586-22.023 18.36a48.384 48.384 0 0 1-28.35 2.847c-9.52-1.918-18.266-6.659-25.135-13.625-6.869-6.965-11.552-15.841-13.457-25.509a50.622 50.622 0 0 1 2.75-28.807c3.698-9.115 9.972-16.912 18.03-22.407a48.559 48.559 0 0 1 27.243-8.465 47.532 47.532 0 0 1 15.466 2.531l.881.309v17.996l-1.884-.957a32.184 32.184 0 0 0-14.462-3.426 32.54 32.54 0 0 0-18.29 5.619 33.321 33.321 0 0 0-12.134 14.997 33.925 33.925 0 0 0-1.885 19.317 33.598 33.598 0 0 0 8.999 17.125 32.744 32.744 0 0 0 16.848 9.158 32.434 32.434 0 0 0 19.017-1.897 33.027 33.027 0 0 0 14.773-12.313 33.812 33.812 0 0 0 5.548-18.576V7.25c4.305 1.973 10.899 5.736 16.171 10.2z" fill="#fff"/></svg>